PathFileType	4	(X/Y/Z)	OpenSim_Sub09_CSStiffKnee_Gyro.trc
DataRate	CameraRate	NumFrames	NumMarkers	Units	OrigDataRate	OrigDataStartFrame	OrigNumFrames
100	100	20	8	m	100	5346	7127
Frame#	Time	torso_imu_offset_imu	pelvis_imu_offset_imu	tibia_r_imu_offset_imu	femur_r_imu_offset_imu	tibia_l_imu_offset_imu	femur_l_imu_offset_imu	toes_r_imu_offset_imu	toes_l_imu_offset_imu
				X1	Y1	Z1	X2	Y2	Z2	X3	Y3	Z3	X4	Y4	Z4	X5	Y5	Z5	X6	Y6	Z6	X7	Y7	Z7	X8		Y8	Z8	

5346	53.45000000	0.39048800	-0.23429632	0.10412249	0.47883199	0.18413653	0.20690448	-0.01252405	0.44734426	2.22133327	0.51697658	-0.17932963	0.63171712	0.45537103	0.08363111	0.76591050	0.48104960	0.09291957	0.52334478	-0.03975002	2.10250959	0.56406376	-0.19664555	-0.17327240	0.45218816
5347	53.46000000	0.42556234	-0.24639794	0.15261086	0.52174842	0.17980245	0.19042965	-0.01036449	0.41428089	2.13656367	0.77682741	-0.13255772	0.64668601	0.52262417	0.10648432	0.80255919	0.47912626	0.11120411	0.54667907	-0.06562260	2.07244067	0.48000805	-0.17903150	-0.20206705	0.45622215
5348	53.47000000	0.45849846	-0.25999025	0.20723715	0.55962085	0.17223712	0.16875505	-0.01361522	0.36714809	2.05524702	1.00806213	-0.10540588	0.63751290	0.54914329	0.11483611	0.83753584	0.51521839	0.11819282	0.58213737	-0.13115089	2.00570692	0.41604819	-0.17783429	-0.23469715	0.45822906
5349	53.48000000	0.48950722	-0.26203339	0.26141478	0.59867660	0.15843047	0.15093800	-0.02058737	0.29076027	1.95808470	1.17167975	-0.09558622	0.61254898	0.53311878	0.12352332	0.84134232	0.57057720	0.15388740	0.59663501	-0.21960316	1.93781822	0.41402919	-0.17430702	-0.28368737	0.45594978
5350	53.49000000	0.52931064	-0.24838212	0.31069907	0.62841897	0.13303046	0.13115616	-0.07689304	0.20188790	1.82475234	1.26009355	-0.08931443	0.57486555	0.50887644	0.13288434	0.83870308	0.59898503	0.20697229	0.59496761	-0.28395546	1.84273635	0.44303431	-0.17197600	-0.32773439	0.45679493
5351	53.50000000	0.56128414	-0.23418474	0.35374390	0.65601574	0.09368238	0.11071865	-0.13197950	0.13811603	1.65568926	1.28627398	-0.07769583	0.53438421	0.47537738	0.14315104	0.88318280	0.60882594	0.25901790	0.57649143	-0.28008246	1.71845590	0.48280169	-0.17523832	-0.37071106	0.46303544
5352	53.51000000	0.58529115	-0.21270477	0.39170640	0.68900079	0.05123556	0.08572091	-0.10056132	0.09041305	1.49216188	1.29911668	-0.06161800	0.49433790	0.49399260	0.17463552	0.92113060	0.65759726	0.30243266	0.56487908	-0.21309280	1.54065294	0.51994847	-0.16881501	-0.40608043	0.46442730
5353	53.52000000	0.59588153	-0.19203332	0.42438091	0.70670870	-0.00002688	0.07433688	0.00574263	0.04368574	1.35238122	1.32976310	-0.04263985	0.45672782	0.49402173	0.19962967	0.94931887	0.70415148	0.33596882	0.63179160	-0.14589668	1.27781574	0.53364481	-0.16347827	-0.44982975	0.47697546
5354	53.53000000	0.60911342	-0.16630258	0.45458987	0.71569251	-0.05292535	0.06692135	0.11521975	0.01924823	1.22577055	1.38567478	-0.04415145	0.43036488	0.51333593	0.21491324	0.98275592	0.70435325	0.40478672	0.63929521	-0.13586322	0.94055144	0.52117694	-0.18080158	-0.49481318	0.50395709
5355	53.54000000	0.60634787	-0.13915674	0.48900101	0.74618815	-0.07883732	0.05051687	0.26928385	-0.01719004	1.09186663	1.46248045	-0.05068336	0.40635050	0.51977172	0.24951610	1.03932440	0.72307201	0.47115533	0.67218341	-0.19078861	0.58617536	0.46799576	-0.20200017	-0.53425820	0.52449021
5356	53.55000000	0.59397611	-0.11468355	0.52232913	0.76275474	-0.10994736	0.04170138	0.46563613	-0.07112922	0.89290719	1.51875963	-0.05634316	0.37432582	0.48021862	0.27996435	1.09728608	0.72585276	0.51505601	0.69624780	-0.29226383	0.28404476	0.38975673	-0.20629259	-0.58833142	0.54695001
5357	53.56000000	0.58570015	-0.09425747	0.55059669	0.77143185	-0.16461550	0.02841940	0.69556330	-0.12553526	0.58695031	1.56477908	-0.06009660	0.35297077	0.38987410	0.26380926	1.13660314	0.71321498	0.53834502	0.69270162	-0.38187022	0.05922129	0.27919945	-0.21187002	-0.65018116	0.56548983
5358	53.57000000	0.57662699	-0.07661158	0.57898879	0.80317141	-0.23864952	0.00796449	0.95375226	-0.18384724	0.20103255	1.56388774	-0.07484686	0.33504024	0.46889029	0.29667477	1.16381816	0.72055867	0.54397589	0.70078880	-0.39651866	-0.13361639	0.10643227	-0.21388091	-0.72509305	0.58420349
5359	53.58000000	0.56465574	-0.05569681	0.60218271	0.84886846	-0.30190655	-0.00675198	1.18120012	-0.25356613	-0.14260850	1.47040269	-0.11027847	0.31196709	0.56246122	0.40051733	1.20898975	0.74497888	0.56651796	0.67133099	-0.30559918	-0.30937369	-0.10800895	-0.20574782	-0.80815369	0.61647002
5360	53.59000000	0.54766807	-0.02513727	0.62818432	0.90696150	-0.34164053	-0.02828925	1.30423168	-0.34364080	-0.43247901	1.27005293	-0.14558083	0.29652630	0.54187906	0.40566058	1.28478733	0.76241173	0.56277269	0.67187095	-0.10173511	-0.40015776	-0.30125893	-0.16155688	-0.89255636	0.63963161
5361	53.60000000	0.53646065	0.01475504	0.63939336	0.96637913	-0.36896833	-0.05483725	1.29083083	-0.49785945	-0.71502942	1.04535562	-0.19081515	0.28825973	0.57869345	0.39054801	1.35970860	0.82660355	0.55414809	0.66401139	0.22679535	-0.43894951	-0.47733210	-0.15733217	-0.98589219	0.66635038
5362	53.61000000	0.55054954	0.07319909	0.66447556	1.02975696	-0.38572880	-0.08781634	1.19710497	-0.64257167	-1.02300559	0.80812237	-0.27739831	0.25088470	0.64033811	0.41852219	1.41089478	0.93366243	0.53032612	0.65527694	0.39817997	-0.21254649	-0.45946512	-0.16477532	-1.08289139	0.71002471
5363	53.62000000	0.57543013	0.16346181	0.68147993	1.17174418	-0.40209393	-0.15298143	1.06800129	-0.74693884	-1.35089528	0.45364583	-0.42744100	0.22078795	0.64647381	0.42189793	1.45354493	1.07307651	0.50289201	0.63523959	0.91805634	-1.33955944	-1.10252229	-0.15865021	-1.18719883	0.75220194
5364	53.63000000	0.58246973	0.25924160	0.71554517	1.40390072	-0.17626096	-0.10336268	1.52506171	-1.26706974	-1.69511067	-0.09189793	-0.72258520	0.20424564	0.61375609	0.39062595	1.51014035	1.17266451	0.53970542	0.61429995	-0.34705487	-4.27732256	-1.28421134	-0.15825518	-1.32831656	0.80507261
5365	53.64000000	0.49883466	0.28606574	0.78349859	1.21990706	0.17696308	0.10863166	0.20958507	-2.73422173	-1.59966305	-0.40732733	-1.01621222	0.13282295	0.43124314	0.42459151	1.59273479	1.21307178	0.62688188	0.54564319	0.02917021	-6.80111879	-1.49291017	-0.20273647	-1.53712585	0.82731601
